<?xml version="1.0" encoding="UTF-8" standalone="no"?>
<svg width="100px" height="100px" viewBox="0 0 100 100" version="1.1" xmlns="http://www.w3.org/2000/svg" xmlns:xlink="http://www.w3.org/1999/xlink">
    <!-- Generator: Sketch 3.8.3 (29802) - http://www.bohemiancoding.com/sketch -->
    <title>Group 2</title>
    <desc>Created with Sketch.</desc>
    <defs>
        <path d="M80,40.0674468 L80,71.9911576 C80,76.4143191 76.4264107,80 72.0014504,80 L27.9985496,80 C23.5810726,80 20,76.4264107 20,72.0014504 L20,27.9985496 C20,23.5810726 23.5794066,20 27.999715,20 L60.0558334,20" id="path-1"></path>
        <mask id="mask-2" maskContentUnits="userSpaceOnUse" maskUnits="objectBoundingBox" x="0" y="0" width="60" height="60" fill="white">
            <use xlink:href="#path-1"></use>
        </mask>
        <rect id="path-3" x="3" y="0" width="17" height="38.7251337"></rect>
        <mask id="mask-4" maskContentUnits="userSpaceOnUse" maskUnits="objectBoundingBox" x="0" y="0" width="17" height="38.7251337" fill="white">
            <use xlink:href="#path-3"></use>
        </mask>
    </defs>
    <g id="Page-1" stroke="none" stroke-width="1" fill="none" fill-rule="evenodd">
        <g id="Group-2">
            <circle id="Oval-1" fill="#EEEEEE" cx="50" cy="50" r="50"></circle>
            <use id="Rectangle-2" stroke="#555555" mask="url(#mask-2)" stroke-width="10" fill-opacity="0" fill="#D8D8D8" xlink:href="#path-1"></use>
            <g id="Group" transform="translate(64.708259, 36.984955) rotate(36.000000) translate(-64.708259, -36.984955) translate(53.208259, 11.984955)">
                <use id="Rectangle-3" stroke="#555555" mask="url(#mask-4)" stroke-width="8" fill-opacity="0" fill="#D8D8D8" xlink:href="#path-3"></use>
                <polygon id="Triangle-1" stroke="#555555" stroke-width="3" fill-opacity="0" fill="#D8D8D8" transform="translate(11.500000, 42.960695) scale(1, -1) translate(-11.500000, -42.960695) " points="11.5 36.3048129 19.5 49.6165776 3.5 49.6165776"></polygon>
                <rect id="Rectangle-4" fill="#EEEEEE" x="20" y="33.884492" width="3" height="4.84064172"></rect>
                <rect id="Rectangle-4-Copy" fill="#EEEEEE" x="1.36424205e-12" y="33.884492" width="3" height="4.84064172"></rect>
            </g>
        </g>
    </g>
</svg>